<mxfile host="app.diagrams.net" modified="2023-10-25T00:16:17.047Z" agent="Mozilla/5.0 (Macintosh; Intel Mac OS X 10_15_7) AppleWebKit/537.36 (KHTML, like Gecko) Chrome/116.0.0.0 Safari/537.36" version="22.0.7" etag="IUswtaIRf1Yz1AkvKkxq" type="github">
  <diagram name="Page-1" id="aQ7wbMh3Ldi6zSNfh3yZ">
    <mxGraphModel>
      <root>
        <mxCell id="0" />
        <mxCell id="1" parent="0" />
      </root>
    </mxGraphModel>
  </diagram>
</mxfile>
